<svg xmlns="http://www.w3.org/2000/svg" xmlns:xlink="http://www.w3.org/1999/xlink" width="626" height="313" contentScriptType="application/ecmascript" contentStyleType="text/css" style="width:626px;height:313px" preserveAspectRatio="none" version="1.1" viewBox="0 0 626 313" zoomAndPan="magnify"><defs><filter id="f1r7b4lpkcrpjs" width="300%" height="300%" x="-1" y="-1"><feGaussianBlur result="blurOut" stdDeviation="2"/><feColorMatrix in="blurOut" result="blurOut2" type="matrix" values="0 0 0 0 0 0 0 0 0 0 0 0 0 0 0 0 0 0 .4 0"/><feOffset dx="4" dy="4" in="blurOut2" result="blurOut3"/><feBlend in="SourceGraphic" in2="blurOut3" mode="normal"/></filter></defs><g><polygon fill="#FFF" points="277 120.5 420 120.5 427 142.797 604 142.797 604 301 277 301 277 120.5" filter="url(#f1r7b4lpkcrpjs)" style="stroke:#000;stroke-width:1.5"/><line style="stroke:#000;stroke-width:1.5" x1="277" x2="427" y1="142.797" y2="142.797"/><text x="281" y="135.495" fill="#000" font-family="sans-serif" font-size="14" font-weight="bold" lengthAdjust="spacingAndGlyphs" textLength="137">Simple Discovery</text><polygon fill="#FFF" points="22 24 214 24 221 46.297 253 46.297 253 300 22 300 22 24" filter="url(#f1r7b4lpkcrpjs)" style="stroke:#000;stroke-width:1.5"/><line style="stroke:#000;stroke-width:1.5" x1="22" x2="221" y1="46.297" y2="46.297"/><text x="26" y="38.995" fill="#000" font-family="sans-serif" font-size="14" font-weight="bold" lengthAdjust="spacingAndGlyphs" textLength="137">Discovery Server</text><ellipse cx="523.201" cy="170.94" fill="#FEFECE" filter="url(#f1r7b4lpkcrpjs)" rx="65.201" ry="15.44" style="stroke:#a80036;stroke-width:1.5"/><text x="476.201" y="175.589" fill="#000" font-family="sans-serif" font-size="14" lengthAdjust="spacingAndGlyphs" textLength="94">participant 1</text><ellipse cx="357.824" cy="269.365" fill="#FEFECE" filter="url(#f1r7b4lpkcrpjs)" rx="64.824" ry="15.365" style="stroke:#a80036;stroke-width:1.5"/><text x="311.324" y="274.013" fill="#000" font-family="sans-serif" font-size="14" lengthAdjust="spacingAndGlyphs" textLength="93">participant 2</text><ellipse cx="358.201" cy="170.94" fill="#FEFECE" filter="url(#f1r7b4lpkcrpjs)" rx="65.201" ry="15.44" style="stroke:#a80036;stroke-width:1.5"/><text x="311.201" y="175.589" fill="#000" font-family="sans-serif" font-size="14" lengthAdjust="spacingAndGlyphs" textLength="94">participant 3</text><ellipse cx="522.824" cy="269.365" fill="#FEFECE" filter="url(#f1r7b4lpkcrpjs)" rx="64.824" ry="15.365" style="stroke:#a80036;stroke-width:1.5"/><text x="476.324" y="274.013" fill="#000" font-family="sans-serif" font-size="14" lengthAdjust="spacingAndGlyphs" textLength="93">participant 4</text><path fill="#FEFECE" d="M99.2848,157.2422 C102.6913,151.2222 107.7778,150.798 112.2648,155.9914 C116.1155,148.5682 120.5452,149.2754 125.4916,154.8788 C128.6267,148.741 134.6695,147.4549 139.0234,153.5281 C143.2839,149.5765 147.6492,149.5556 150.2709,155.4082 C154.9527,150.1287 159.5909,149.3408 163.2357,156.49 C168.6609,149.414 173.934,149.5954 177.7428,158.0043 C184.0059,161.6676 183.5563,168.5038 177.2825,171.7472 C184.1422,176.0456 184.4352,182.0842 177.9589,186.9749 C175.333,193.7954 169.4268,194.6808 165.0614,188.7319 C161.2363,196.2351 156.3675,197.3464 150.2406,191.2384 C148.3623,196.5799 143.0128,199.0236 138.9165,193.5637 C133.0803,199.7683 128.1226,198.9023 124.6133,191.1747 C120.2255,197.6567 114.8427,196.2168 111.1772,190.3866 C106.496,195.391 100.8958,194.5466 99.4044,187.3171 C89.6807,186.3977 86.3849,180.637 91.2937,171.9797 C87.9775,163.934 90.0923,158.5053 99.2848,157.2422" style="stroke:#000;stroke-width:1.5"/><text x="105" y="175.995" fill="#000" font-family="sans-serif" font-size="14" lengthAdjust="spacingAndGlyphs" textLength="64">Server(s)</text><ellipse cx="79.184" cy="73.524" fill="#FEFECE" filter="url(#f1r7b4lpkcrpjs)" rx="41.184" ry="14.524" style="stroke:#a80036;stroke-width:1.5"/><text x="52.184" y="78.172" fill="#000" font-family="sans-serif" font-size="14" lengthAdjust="spacingAndGlyphs" textLength="54">client 1</text><ellipse cx="78.977" cy="269.524" fill="#FEFECE" filter="url(#f1r7b4lpkcrpjs)" rx="40.477" ry="14.524" style="stroke:#a80036;stroke-width:1.5"/><text x="52.477" y="274.172" fill="#000" font-family="sans-serif" font-size="14" lengthAdjust="spacingAndGlyphs" textLength="53">client 2</text><ellipse cx="196.184" cy="73.524" fill="#FEFECE" filter="url(#f1r7b4lpkcrpjs)" rx="41.184" ry="14.524" style="stroke:#a80036;stroke-width:1.5"/><text x="169.184" y="78.172" fill="#000" font-family="sans-serif" font-size="14" lengthAdjust="spacingAndGlyphs" textLength="54">client 3</text><ellipse cx="194.977" cy="269.524" fill="#FEFECE" filter="url(#f1r7b4lpkcrpjs)" rx="40.477" ry="14.524" style="stroke:#a80036;stroke-width:1.5"/><text x="168.477" y="274.172" fill="#000" font-family="sans-serif" font-size="14" lengthAdjust="spacingAndGlyphs" textLength="53">client 4</text><path id="p1-p2" fill="none" d="M495.132,188.298 C464.596,206.158 415.918,234.6265 385.52,252.4049" style="stroke:#a80036;stroke-width:1"/><polygon fill="#A80036" points="381.172 254.948 390.96 253.857 385.488 252.424 386.921 246.951 381.172 254.948" style="stroke:#a80036;stroke-width:1"/><polygon fill="#A80036" points="499.709 185.621 489.921 186.712 495.393 188.145 493.96 193.618 499.709 185.621" style="stroke:#a80036;stroke-width:1"/><path id="p3-p1" fill="none" d="M428.253,171 C436.417,171 444.582,171 452.746,171" style="stroke:#a80036;stroke-width:1"/><polygon fill="#A80036" points="457.829 171 448.829 167 452.829 171 448.829 175 457.829 171" style="stroke:#a80036;stroke-width:1"/><polygon fill="#A80036" points="423.098 171 432.098 175 428.098 171 432.098 167 423.098 171" style="stroke:#a80036;stroke-width:1"/><path id="p4-p1" fill="none" d="M523,248.3817 C523,231.8602 523,208.576 523,192.068" style="stroke:#a80036;stroke-width:1"/><polygon fill="#A80036" points="523 186.656 519 195.656 523 191.656 527 195.656 523 186.656" style="stroke:#a80036;stroke-width:1"/><polygon fill="#A80036" points="523 253.706 527 244.706 523 248.706 519 244.706 523 253.706" style="stroke:#a80036;stroke-width:1"/><path id="p3-p2" fill="none" d="M358,192.068 C358,208.576 358,231.8602 358,248.3817" style="stroke:#a80036;stroke-width:1"/><polygon fill="#A80036" points="358 253.706 362 244.706 358 248.706 354 244.706 358 253.706" style="stroke:#a80036;stroke-width:1"/><polygon fill="#A80036" points="358 186.656 354 195.656 358 191.656 362 195.656 358 186.656" style="stroke:#a80036;stroke-width:1"/><path id="p2-p4" fill="none" d="M428.253,269.5 C436.417,269.5 444.582,269.5 452.746,269.5" style="stroke:#a80036;stroke-width:1"/><polygon fill="#A80036" points="457.829 269.5 448.829 265.5 452.829 269.5 448.829 273.5 457.829 269.5" style="stroke:#a80036;stroke-width:1"/><polygon fill="#A80036" points="423.098 269.5 432.098 273.5 428.098 269.5 432.098 265.5 423.098 269.5" style="stroke:#a80036;stroke-width:1"/><path id="p3-p4" fill="none" d="M385.868,188.298 C416.404,206.158 465.082,234.6265 495.48,252.4049" style="stroke:#a80036;stroke-width:1"/><polygon fill="#A80036" points="499.828 254.948 494.079 246.951 495.512 252.424 490.04 253.857 499.828 254.948" style="stroke:#a80036;stroke-width:1"/><polygon fill="#A80036" points="381.291 185.621 387.04 193.618 385.607 188.145 391.079 186.712 381.291 185.621" style="stroke:#a80036;stroke-width:1"/><path id="ps1-server" fill="none" d="M89.8654,92.39 C98.5504,106.691 110.86,126.96 120.722,143.198" style="stroke:#a80036;stroke-width:1"/><polygon fill="#A80036" points="123.434 147.662 122.181 137.893 120.839 143.388 115.344 142.046 123.434 147.662" style="stroke:#a80036;stroke-width:1"/><polygon fill="#A80036" points="87.065 87.779 88.318 97.548 89.66 92.052 95.156 93.395 87.065 87.779" style="stroke:#a80036;stroke-width:1"/><path id="server-ps2" fill="none" d="M120.82,198.92 C110.841,215.524 98.3257,236.3461 89.5987,250.8659" style="stroke:#a80036;stroke-width:1"/><polygon fill="#A80036" points="87.019 255.158 95.084 249.505 89.595 250.873 88.227 245.384 87.019 255.158" style="stroke:#a80036;stroke-width:1"/><polygon fill="#A80036" points="123.548 194.382 115.483 200.036 120.972 198.668 122.34 204.156 123.548 194.382" style="stroke:#a80036;stroke-width:1"/><path id="ps3-server" fill="none" d="M184.947,92.39 C176.112,106.691 163.59,126.96 153.559,143.198" style="stroke:#a80036;stroke-width:1"/><polygon fill="#A80036" points="150.8 147.662 158.932 142.106 153.427 143.408 152.125 137.903 150.8 147.662" style="stroke:#a80036;stroke-width:1"/><polygon fill="#A80036" points="187.796 87.779 179.663 93.334 185.168 92.033 186.469 97.538 187.796 87.779" style="stroke:#a80036;stroke-width:1"/><path id="server-ps4" fill="none" d="M153.18,198.92 C163.159,215.524 175.674,236.3461 184.401,250.8659" style="stroke:#a80036;stroke-width:1"/><polygon fill="#A80036" points="186.981 255.158 185.773 245.384 184.405 250.873 178.916 249.505 186.981 255.158" style="stroke:#a80036;stroke-width:1"/><polygon fill="#A80036" points="150.452 194.382 151.66 204.156 153.028 198.668 158.517 200.036 150.452 194.382" style="stroke:#a80036;stroke-width:1"/></g></svg>