<svg xmlns="http://www.w3.org/2000/svg" xmlns:xlink="http://www.w3.org/1999/xlink" id="Layer_1" width="240" height="53" x="0" y="0" enable-background="new 0 0 240 53" version="1.1" viewBox="0 0 240 53" xml:space="preserve"><switch><g><g><path fill="#4C4C4C" d="M83.793,2.874h-0.457h-7.377l-14.28,23.404h8.531c0,0,8.447-14.822,9.67-16.956 c1.226,2.134,9.723,16.956,9.723,16.956h8.461L83.793,2.874z"/><polygon fill="#717272" points="75.93 17.883 83.876 17.883 79.88 23.651"/><path fill="#4C4C4C" d="M115.012,2.874h-13.167h-0.815v23.404h13.982c13.565,0,16.413-6.387,16.413-11.736 C131.425,9.221,128.577,2.874,115.012,2.874 M108.851,7.466h3.617c7.524,0.122,10.839,0.832,10.839,7.075 c0,6.326-3.14,7.012-10.854,7.145h-3.603V7.466z"/><polygon fill="#4C4C4C" points="142.039 21.503 142.039 2.874 141.229 2.874 134.162 2.874 134.162 26.278 159.881 26.278 159.881 21.503"/><polygon fill="#4C4C4C" points="170.256 2.874 163.195 2.874 163.195 26.278 171.072 26.278 171.072 2.874"/><polygon fill="#4C4C4C" points="214.262 2.874 207.133 2.874 207.133 26.278 215.068 26.278 215.068 2.874"/><path fill="#4C4C4C" d="M196.156,2.931v14.154c-2.28-2.37-13.639-14.154-13.639-14.154l-0.347-0.058h-6.304h-0.815v23.404h7.383 V12.013c2.291,2.386,13.709,14.265,13.709,14.265h7.473V2.931H196.156z"/><path fill="#4C4C4C" d="M224.691,12.618c1.421-1.013,13.623-9.748,13.623-9.748h-2.526h-7.566l-12.632,10.084l13.117,13.324 h10.867C239.572,26.278,226.013,13.835,224.691,12.618"/><path fill="#AC271B" d="M0,50.12c14.804-14.165,32.813-14.165,47.665,0l-9.814-20.594l-29.469,2.97L0,50.12z"/><polygon fill="#AC271B" points="10.038 29.037 37.589 29.037 35.484 24.562 10.754 27.568"/><polygon fill="#AC271B" points="12.439 23.961 35.187 23.961 33.154 19.641 13.157 22.496"/><polygon fill="#AC271B" points="14.85 18.923 32.813 18.923 23.833 .091"/><path fill="#212120" d="M48.207,47.046c0,1.099,0.894,1.996,1.995,1.996c1.092,0,1.992-0.897,1.992-1.996 c0-1.093-0.9-1.989-1.992-1.989C49.101,45.057,48.207,45.954,48.207,47.046 M48.521,47.046c0-0.923,0.75-1.675,1.681-1.675 c0.925,0,1.683,0.752,1.683,1.675c0,0.929-0.758,1.684-1.683,1.684C49.271,48.73,48.521,47.975,48.521,47.046"/><path fill="#212120" d="M49.4,48.125v-2.089h0.881c0.227,0,0.382,0.022,0.489,0.057c0.1,0.037,0.182,0.102,0.237,0.197 c0.066,0.102,0.094,0.212,0.094,0.33c0,0.157-0.045,0.286-0.137,0.389c-0.093,0.104-0.234,0.166-0.415,0.192 c0.096,0.056,0.173,0.114,0.233,0.179c0.053,0.061,0.131,0.173,0.231,0.34l0.262,0.405h-0.505l-0.307-0.456 c-0.108-0.16-0.182-0.265-0.223-0.307c-0.039-0.041-0.083-0.074-0.127-0.087c-0.041-0.015-0.112-0.022-0.213-0.022h-0.088v0.872 H49.4z M49.812,46.916h0.315c0.203,0,0.327-0.01,0.381-0.021c0.053-0.02,0.091-0.051,0.116-0.092 c0.032-0.039,0.039-0.09,0.039-0.155c0-0.071-0.012-0.122-0.048-0.173c-0.039-0.042-0.094-0.068-0.161-0.078 c-0.034-0.002-0.136-0.005-0.31-0.005h-0.332V46.916z"/><polygon fill="#717272" points="69.829 49.138 69.829 50.039 63.82 50.039 63.82 39.468 64.858 39.468 64.858 49.138"/><path fill="#717272" d="M70.488,46.087c0-0.688,0.098-1.293,0.293-1.806c0.2-0.512,0.459-0.941,0.781-1.289 c0.319-0.344,0.685-0.605,1.095-0.77c0.412-0.166,0.834-0.252,1.276-0.252c0.964,0,1.736,0.315,2.312,0.946 c0.572,0.632,0.859,1.6,0.859,2.914c0,0.077-0.003,0.162-0.007,0.244c-0.008,0.08-0.014,0.155-0.025,0.226H71.54 c0.03,0.968,0.266,1.71,0.716,2.229c0.45,0.518,1.16,0.775,2.13,0.775c0.542,0,0.971-0.049,1.284-0.149 c0.32-0.103,0.547-0.192,0.689-0.264l0.179,0.857c-0.137,0.081-0.405,0.176-0.799,0.286c-0.39,0.113-0.852,0.17-1.376,0.17 c-0.694,0-1.281-0.104-1.775-0.307c-0.49-0.2-0.887-0.488-1.201-0.852c-0.317-0.366-0.544-0.805-0.687-1.305 C70.556,47.237,70.488,46.686,70.488,46.087 M76.085,45.461c-0.021-0.822-0.214-1.462-0.579-1.918 c-0.37-0.46-0.887-0.688-1.558-0.688c-0.355,0-0.672,0.068-0.953,0.215c-0.278,0.144-0.528,0.33-0.732,0.569 c-0.207,0.238-0.372,0.518-0.489,0.833c-0.117,0.316-0.188,0.646-0.204,0.989H76.085z"/><path fill="#717272" d="M81.255,41.974c0.52,0,0.956,0.068,1.317,0.217c0.362,0.148,0.651,0.352,0.874,0.613 c0.228,0.256,0.389,0.565,0.49,0.919c0.101,0.355,0.149,0.744,0.149,1.161v4.975c-0.099,0.028-0.244,0.06-0.438,0.096 c-0.193,0.037-0.416,0.076-0.668,0.112c-0.259,0.045-0.538,0.077-0.849,0.102c-0.312,0.023-0.626,0.035-0.953,0.035 c-0.416,0-0.798-0.042-1.156-0.137c-0.349-0.086-0.649-0.232-0.912-0.432c-0.255-0.2-0.463-0.456-0.613-0.764 c-0.143-0.312-0.219-0.688-0.219-1.137c0-0.423,0.081-0.79,0.246-1.1c0.162-0.301,0.391-0.554,0.685-0.75 c0.294-0.2,0.645-0.344,1.052-0.438c0.404-0.093,0.848-0.134,1.327-0.134c0.143,0,0.292,0.005,0.452,0.018 c0.157,0.018,0.308,0.036,0.453,0.064c0.149,0.028,0.277,0.05,0.381,0.079c0.108,0.023,0.186,0.047,0.226,0.067v-0.488 c0-0.273-0.021-0.542-0.064-0.801c-0.038-0.258-0.124-0.494-0.265-0.703c-0.137-0.209-0.33-0.375-0.581-0.506 c-0.25-0.126-0.575-0.188-0.983-0.188c-0.577,0-1.013,0.042-1.295,0.122c-0.283,0.083-0.493,0.149-0.625,0.197l-0.137-0.871 c0.172-0.076,0.439-0.158,0.798-0.226C80.312,42.01,80.743,41.974,81.255,41.974 M81.345,49.323c0.386,0,0.721-0.013,1.014-0.036 c0.291-0.029,0.533-0.06,0.742-0.103v-2.775c-0.115-0.054-0.297-0.104-0.541-0.16c-0.239-0.055-0.575-0.08-1.001-0.08 c-0.244,0-0.5,0.018-0.763,0.05c-0.267,0.036-0.512,0.113-0.732,0.229c-0.223,0.12-0.412,0.273-0.554,0.482 c-0.138,0.199-0.209,0.467-0.209,0.805c0,0.294,0.047,0.545,0.142,0.75c0.099,0.199,0.236,0.367,0.418,0.489 c0.172,0.121,0.388,0.205,0.638,0.265C80.748,49.292,81.028,49.323,81.345,49.323"/><path fill="#717272" d="M92.432,49.792c-0.291,0.103-0.673,0.205-1.13,0.293c-0.455,0.09-1.039,0.138-1.739,0.138 c-0.581,0-1.105-0.094-1.577-0.279c-0.475-0.192-0.88-0.463-1.22-0.82c-0.345-0.355-0.606-0.786-0.795-1.293 c-0.188-0.509-0.283-1.087-0.283-1.726c0-0.598,0.084-1.154,0.237-1.656c0.158-0.499,0.389-0.935,0.696-1.304 c0.306-0.363,0.683-0.649,1.119-0.852c0.445-0.202,0.95-0.304,1.521-0.304c0.516,0,0.966,0.072,1.347,0.22 c0.382,0.146,0.656,0.286,0.832,0.421v-4.243l0.992-0.182V49.792z M91.44,43.585c-0.092-0.068-0.204-0.144-0.342-0.227 c-0.138-0.084-0.298-0.154-0.482-0.227c-0.182-0.072-0.382-0.131-0.593-0.179c-0.216-0.048-0.439-0.065-0.678-0.065 c-0.482,0-0.893,0.086-1.225,0.256c-0.33,0.172-0.594,0.405-0.801,0.697c-0.203,0.288-0.348,0.626-0.442,1.019 c-0.086,0.394-0.135,0.808-0.135,1.244c0,1.037,0.259,1.833,0.776,2.384c0.52,0.555,1.202,0.835,2.059,0.835 c0.489,0,0.881-0.024,1.179-0.072c0.304-0.041,0.532-0.09,0.683-0.141V43.585z"/><path fill="#717272" d="M95.815,39.773c0,0.237-0.071,0.422-0.213,0.56c-0.146,0.137-0.317,0.202-0.52,0.202 c-0.201,0-0.374-0.065-0.519-0.202c-0.143-0.138-0.214-0.322-0.214-0.56c0-0.233,0.071-0.418,0.214-0.556 c0.145-0.136,0.317-0.208,0.519-0.208c0.203,0,0.375,0.072,0.52,0.208C95.745,39.355,95.815,39.54,95.815,39.773 M95.585,50.039 h-0.992v-7.883h0.992V50.039z"/><path fill="#717272" d="M97.752,42.43c0.298-0.081,0.69-0.174,1.192-0.274c0.5-0.102,1.107-0.156,1.828-0.156 c0.602,0,1.103,0.091,1.502,0.262c0.402,0.175,0.726,0.418,0.962,0.736c0.237,0.326,0.407,0.707,0.507,1.154 c0.105,0.448,0.157,0.939,0.157,1.479v4.405h-0.994v-4.086c0-0.558-0.038-1.034-0.115-1.417 c-0.074-0.389-0.202-0.704-0.382-0.945c-0.171-0.245-0.411-0.421-0.698-0.528c-0.289-0.104-0.652-0.16-1.093-0.16 c-0.467,0-0.871,0.023-1.211,0.077c-0.339,0.055-0.566,0.099-0.664,0.14v6.92h-0.992V42.43z"/><path fill="#717272" d="M111.115,49.126c-0.066,0.047-0.151,0.109-0.273,0.172c-0.125,0.068-0.276,0.137-0.448,0.209 c-0.182,0.071-0.382,0.128-0.613,0.173c-0.231,0.047-0.488,0.07-0.774,0.07c-0.452,0-0.894-0.07-1.323-0.217 c-0.43-0.141-0.802-0.366-1.124-0.667c-0.318-0.307-0.574-0.7-0.769-1.184c-0.193-0.482-0.287-1.072-0.287-1.761 c0-0.562,0.081-1.08,0.256-1.558c0.176-0.476,0.418-0.893,0.739-1.245c0.319-0.348,0.713-0.622,1.174-0.82 c0.461-0.197,0.981-0.296,1.564-0.296c0.732,0,1.316,0.045,1.759,0.142c0.445,0.1,0.809,0.188,1.089,0.28v7.202 c0,1.178-0.299,2.021-0.913,2.524c-0.612,0.501-1.532,0.757-2.758,0.757c-0.511,0-0.973-0.042-1.383-0.117 c-0.412-0.076-0.765-0.163-1.061-0.264l0.2-0.905c0.246,0.112,0.576,0.208,1,0.294c0.422,0.081,0.844,0.123,1.274,0.123 c0.935,0,1.615-0.187,2.036-0.543c0.424-0.36,0.633-0.979,0.633-1.853V49.126z M111.099,43.114 c-0.175-0.054-0.395-0.097-0.675-0.142c-0.274-0.045-0.663-0.068-1.167-0.068c-0.429,0-0.809,0.073-1.141,0.216 c-0.33,0.152-0.613,0.358-0.844,0.626c-0.237,0.271-0.418,0.59-0.538,0.962c-0.124,0.372-0.183,0.784-0.183,1.231 c0,0.518,0.073,0.959,0.217,1.334c0.14,0.366,0.332,0.673,0.554,0.905c0.229,0.232,0.492,0.406,0.79,0.513 c0.292,0.106,0.593,0.161,0.894,0.161c0.448,0,0.859-0.072,1.229-0.203c0.372-0.132,0.659-0.28,0.863-0.458V43.114z"/><polygon fill="#717272" points="117.229 50.037 117.229 39.468 124.017 39.468 124.017 41.101 119.152 41.101 119.152 43.71 123.481 43.71 123.481 45.313 119.152 45.313 119.152 48.408 124.382 48.408 124.382 50.037"/><path fill="#717272" d="M134.482,44.747c0,0.918-0.145,1.713-0.429,2.39c-0.284,0.673-0.69,1.239-1.215,1.691 c-0.522,0.452-1.152,0.79-1.891,1.007c-0.735,0.215-1.55,0.327-2.448,0.327c-0.425,0-0.907-0.018-1.448-0.053 c-0.54-0.036-1.052-0.11-1.538-0.222V39.62c0.486-0.109,1.005-0.179,1.555-0.211c0.551-0.033,1.037-0.045,1.465-0.045 c0.885,0,1.691,0.104,2.424,0.313c0.732,0.206,1.359,0.533,1.881,0.977c0.525,0.44,0.931,1.001,1.215,1.674 C134.337,43.006,134.482,43.811,134.482,44.747 M127.433,48.452c0.112,0.013,0.259,0.021,0.443,0.024 c0.181,0.007,0.431,0.009,0.746,0.009c1.29,0,2.254-0.33,2.892-0.982c0.634-0.659,0.953-1.575,0.953-2.756 c0-1.197-0.309-2.117-0.932-2.758c-0.621-0.641-1.578-0.966-2.881-0.966c-0.572,0-0.978,0.019-1.221,0.049V48.452z"/><path fill="#717272" d="M140.87,40.916c-1.087,0-1.917,0.34-2.492,1.019c-0.575,0.677-0.864,1.615-0.864,2.812 c0,0.571,0.069,1.091,0.21,1.564c0.135,0.474,0.337,0.879,0.606,1.212c0.271,0.334,0.604,0.596,1.006,0.787 c0.404,0.185,0.873,0.282,1.413,0.282c0.337,0,0.625-0.015,0.87-0.038c0.243-0.03,0.435-0.063,0.577-0.098v-3.799h1.922v5.078 c-0.262,0.103-0.712,0.212-1.341,0.331c-0.632,0.125-1.357,0.187-2.18,0.187c-0.762,0-1.458-0.121-2.089-0.368 c-0.631-0.241-1.166-0.599-1.611-1.066c-0.441-0.468-0.785-1.04-1.029-1.726c-0.243-0.678-0.366-1.462-0.366-2.347 s0.136-1.668,0.402-2.348c0.271-0.682,0.639-1.262,1.106-1.732c0.467-0.472,1.018-0.829,1.647-1.076 c0.633-0.241,1.3-0.365,2.012-0.365c0.49,0,0.924,0.035,1.306,0.101s0.709,0.137,0.982,0.22c0.276,0.083,0.502,0.168,0.68,0.259 c0.179,0.093,0.304,0.159,0.376,0.2l-0.581,1.569c-0.305-0.181-0.687-0.339-1.134-0.467 C141.843,40.981,141.368,40.916,140.87,40.916"/><polygon fill="#717272" points="145.69 50.037 145.69 39.468 152.476 39.468 152.476 41.101 147.612 41.101 147.612 43.71 151.943 43.71 151.943 45.313 147.612 45.313 147.612 48.408 152.841 48.408 152.841 50.037"/><path fill="#717272" d="M161.567,50.27c-0.792,0-1.505-0.126-2.136-0.367c-0.631-0.245-1.164-0.602-1.599-1.075 c-0.438-0.477-0.774-1.049-1.009-1.734c-0.233-0.678-0.351-1.465-0.351-2.35s0.137-1.662,0.408-2.345 c0.266-0.685,0.636-1.26,1.104-1.73c0.472-0.474,1.015-0.831,1.647-1.075c0.629-0.244,1.305-0.366,2.03-0.366 c0.436,0,0.831,0.033,1.19,0.099c0.352,0.065,0.666,0.137,0.926,0.218c0.267,0.085,0.483,0.17,0.658,0.259 c0.171,0.095,0.294,0.161,0.364,0.202l-0.562,1.566c-0.242-0.147-0.592-0.291-1.045-0.432c-0.452-0.141-0.94-0.209-1.471-0.209 c-0.455,0-0.885,0.084-1.282,0.242c-0.395,0.154-0.737,0.391-1.029,0.709c-0.29,0.315-0.518,0.709-0.678,1.188 c-0.163,0.479-0.243,1.034-0.243,1.662c0,0.557,0.062,1.07,0.189,1.536c0.128,0.472,0.321,0.877,0.588,1.212 c0.265,0.347,0.598,0.609,1.006,0.8c0.405,0.185,0.894,0.276,1.464,0.276c0.682,0,1.235-0.068,1.661-0.205 c0.43-0.138,0.76-0.262,0.992-0.387l0.52,1.573c-0.123,0.077-0.288,0.16-0.494,0.243c-0.208,0.078-0.458,0.162-0.743,0.232 c-0.284,0.077-0.605,0.137-0.96,0.188C162.354,50.246,161.971,50.27,161.567,50.27"/><path fill="#717272" d="M175.491,44.747c0,0.905-0.135,1.705-0.402,2.395c-0.271,0.691-0.639,1.27-1.101,1.73 c-0.46,0.466-1.003,0.813-1.623,1.047c-0.621,0.231-1.279,0.352-1.984,0.352c-0.699,0-1.362-0.12-1.989-0.352 c-0.625-0.233-1.171-0.581-1.634-1.047c-0.462-0.461-0.83-1.039-1.107-1.73c-0.271-0.689-0.409-1.489-0.409-2.395 s0.137-1.703,0.409-2.386c0.277-0.688,0.65-1.264,1.123-1.731c0.474-0.47,1.018-0.818,1.642-1.051 c0.619-0.234,1.275-0.354,1.965-0.354c0.692,0,1.349,0.119,1.97,0.354c0.619,0.232,1.159,0.581,1.625,1.051 c0.462,0.468,0.827,1.044,1.105,1.731C175.353,43.043,175.491,43.841,175.491,44.747 M167.238,44.747 c0,0.578,0.068,1.108,0.216,1.579c0.142,0.474,0.347,0.875,0.613,1.203c0.273,0.332,0.602,0.587,0.987,0.77 c0.386,0.187,0.823,0.275,1.312,0.275c0.476,0,0.911-0.089,1.294-0.275c0.39-0.183,0.716-0.438,0.982-0.77 c0.273-0.328,0.479-0.729,0.622-1.203c0.135-0.471,0.211-1.001,0.211-1.579s-0.077-1.105-0.211-1.579 c-0.143-0.471-0.349-0.875-0.622-1.203c-0.267-0.334-0.593-0.587-0.982-0.771c-0.384-0.182-0.818-0.277-1.294-0.277 c-0.489,0-0.926,0.096-1.312,0.277c-0.386,0.185-0.714,0.44-0.987,0.781c-0.266,0.329-0.471,0.734-0.613,1.2 C167.307,43.645,167.238,44.168,167.238,44.747"/><path fill="#717272" d="M179.248,39.468c0.226,0.391,0.471,0.857,0.75,1.421c0.273,0.557,0.554,1.146,0.836,1.76 c0.287,0.614,0.567,1.24,0.847,1.877c0.277,0.632,0.535,1.224,0.769,1.758c0.234-0.534,0.49-1.126,0.763-1.758 c0.276-0.637,0.556-1.263,0.839-1.877c0.284-0.613,0.563-1.203,0.84-1.76c0.271-0.563,0.521-1.03,0.746-1.421h1.732 c0.091,0.774,0.181,1.594,0.264,2.466c0.081,0.87,0.158,1.759,0.223,2.67c0.068,0.905,0.132,1.823,0.188,2.74 c0.057,0.924,0.108,1.82,0.149,2.694h-1.893c-0.041-1.229-0.092-2.498-0.149-3.796c-0.055-1.303-0.143-2.563-0.254-3.786 c-0.112,0.238-0.244,0.516-0.397,0.843c-0.151,0.32-0.314,0.68-0.487,1.061c-0.175,0.381-0.35,0.771-0.529,1.18 c-0.174,0.404-0.349,0.801-0.518,1.182c-0.167,0.382-0.323,0.736-0.465,1.069c-0.144,0.331-0.265,0.611-0.365,0.848h-1.434 c-0.103-0.236-0.223-0.52-0.367-0.855c-0.142-0.338-0.297-0.695-0.464-1.076c-0.168-0.381-0.34-0.774-0.519-1.186 c-0.178-0.402-0.354-0.792-0.528-1.171c-0.17-0.375-0.332-0.73-0.489-1.061c-0.153-0.326-0.281-0.606-0.395-0.833 c-0.114,1.223-0.2,2.483-0.257,3.786c-0.055,1.298-0.108,2.567-0.145,3.796h-1.895c0.043-0.874,0.092-1.777,0.149-2.712 c0.056-0.936,0.12-1.865,0.186-2.789c0.067-0.918,0.146-1.811,0.226-2.674c0.083-0.861,0.172-1.663,0.264-2.396H179.248z"/><path fill="#717272" d="M192.752,39.361c1.536,0,2.712,0.284,3.532,0.84c0.815,0.56,1.226,1.437,1.226,2.625 c0,0.616-0.11,1.153-0.326,1.593c-0.221,0.443-0.537,0.805-0.953,1.086c-0.418,0.278-0.929,0.481-1.526,0.612 c-0.602,0.138-1.285,0.199-2.058,0.199h-0.967v3.721h-1.918V39.624c0.447-0.103,0.943-0.173,1.486-0.206 C191.797,39.378,192.298,39.361,192.752,39.361 M192.893,41.023c-0.489,0-0.892,0.019-1.21,0.049v3.597h0.932 c0.929,0,1.64-0.131,2.137-0.39c0.498-0.26,0.744-0.747,0.744-1.469c0-0.344-0.063-0.637-0.193-0.869 c-0.133-0.233-0.315-0.418-0.551-0.548c-0.233-0.133-0.51-0.227-0.831-0.286C193.603,41.056,193.256,41.023,192.893,41.023"/><path fill="#717272" d="M202.684,50.27c-0.721,0-1.344-0.104-1.864-0.315c-0.516-0.21-0.946-0.502-1.285-0.879 c-0.343-0.374-0.593-0.814-0.756-1.323c-0.161-0.51-0.246-1.07-0.246-1.677v-6.607h1.939v6.419c0,0.483,0.056,0.888,0.158,1.234 c0.108,0.336,0.259,0.615,0.462,0.831c0.197,0.212,0.429,0.368,0.698,0.47c0.271,0.102,0.573,0.149,0.908,0.149 c0.338,0,0.641-0.048,0.915-0.149c0.275-0.102,0.512-0.258,0.709-0.47c0.202-0.216,0.352-0.495,0.46-0.831 c0.105-0.347,0.159-0.751,0.159-1.234v-6.419h1.937v6.607c0,0.606-0.084,1.167-0.25,1.677c-0.17,0.509-0.423,0.949-0.762,1.323 c-0.341,0.377-0.778,0.669-1.304,0.879C204.03,50.166,203.404,50.27,202.684,50.27"/><polygon fill="#717272" points="216.043 39.468 216.043 41.133 212.792 41.133 212.792 50.039 210.856 50.039 210.856 41.133 207.611 41.133 207.611 39.468"/><rect width="1.921" height="10.567" x="216.851" y="39.471" fill="#717272"/><path fill="#717272" d="M227.77,50.037c-0.344-0.577-0.732-1.203-1.156-1.865c-0.427-0.666-0.872-1.34-1.33-2.013 c-0.455-0.677-0.922-1.334-1.392-1.973c-0.477-0.631-0.926-1.203-1.352-1.713v7.563h-1.893V39.468h1.571 c0.407,0.429,0.847,0.935,1.314,1.519c0.466,0.587,0.938,1.195,1.408,1.823c0.478,0.632,0.932,1.265,1.374,1.901 c0.442,0.632,0.835,1.228,1.183,1.774v-7.018h1.905v10.568H227.77z"/><path fill="#717272" d="M236.221,40.916c-1.087,0-1.918,0.34-2.492,1.019c-0.576,0.677-0.864,1.615-0.864,2.812 c0,0.571,0.069,1.091,0.209,1.564c0.136,0.474,0.337,0.879,0.606,1.212c0.271,0.334,0.604,0.596,1.006,0.787 c0.402,0.185,0.873,0.282,1.413,0.282c0.337,0,0.624-0.015,0.871-0.038c0.241-0.03,0.433-0.063,0.575-0.098v-3.799h1.923v5.078 c-0.26,0.103-0.712,0.212-1.341,0.331c-0.632,0.125-1.356,0.187-2.181,0.187c-0.762,0-1.458-0.121-2.089-0.368 c-0.629-0.241-1.166-0.599-1.611-1.066c-0.44-0.468-0.785-1.04-1.028-1.726c-0.245-0.678-0.366-1.462-0.366-2.347 s0.137-1.668,0.402-2.348c0.271-0.682,0.64-1.262,1.107-1.732c0.466-0.472,1.017-0.829,1.647-1.076 c0.631-0.241,1.3-0.365,2.013-0.365c0.489,0,0.924,0.035,1.304,0.101c0.382,0.065,0.71,0.137,0.983,0.22 c0.276,0.083,0.501,0.168,0.68,0.259c0.179,0.093,0.303,0.159,0.375,0.2l-0.58,1.569c-0.306-0.181-0.687-0.339-1.134-0.467 C237.194,40.981,236.719,40.916,236.221,40.916"/><rect width="178.698" height=".917" x="61.302" y="33.183" fill="#AFAFB0"/></g></g></switch></svg>